<mxfile host="app.diagrams.net" modified="2023-11-09T20:58:52.610Z" agent="Mozilla/5.0 (Macintosh; Intel Mac OS X 10_15_7) AppleWebKit/605.1.15 (KHTML, like Gecko) Version/17.0 Safari/605.1.15" etag="7TUREQI728jjCGm_RNk_" version="22.1.0" type="device">
  <diagram name="Page-1" id="4sL0jW8a9oF7xSXmNBi8">
    <mxGraphModel dx="4930" dy="3323" grid="1" gridSize="10" guides="1" tooltips="1" connect="1" arrows="1" fold="1" page="1" pageScale="1" pageWidth="850" pageHeight="1100" math="0" shadow="0">
      <root>
        <mxCell id="0" />
        <mxCell id="1" parent="0" />
        <mxCell id="IKqCLySUYq28cKyVmnJ_-4" value="COMP_address" style="ellipse;whiteSpace=wrap;html=1;" vertex="1" parent="1">
          <mxGeometry x="360" y="310" width="120" height="80" as="geometry" />
        </mxCell>
        <mxCell id="IKqCLySUYq28cKyVmnJ_-9" value="" style="ellipse;whiteSpace=wrap;html=1;" vertex="1" parent="1">
          <mxGeometry x="360" y="150" width="120" height="80" as="geometry" />
        </mxCell>
        <mxCell id="IKqCLySUYq28cKyVmnJ_-21" value="" style="ellipse;whiteSpace=wrap;html=1;" vertex="1" parent="1">
          <mxGeometry x="500" y="370" width="120" height="80" as="geometry" />
        </mxCell>
        <mxCell id="IKqCLySUYq28cKyVmnJ_-22" value="" style="ellipse;whiteSpace=wrap;html=1;" vertex="1" parent="1">
          <mxGeometry x="220" y="180" width="120" height="80" as="geometry" />
        </mxCell>
        <mxCell id="IKqCLySUYq28cKyVmnJ_-23" value="" style="ellipse;whiteSpace=wrap;html=1;" vertex="1" parent="1">
          <mxGeometry x="520" y="210" width="120" height="80" as="geometry" />
        </mxCell>
        <mxCell id="IKqCLySUYq28cKyVmnJ_-24" value="" style="endArrow=none;html=1;rounded=0;entryX=0.033;entryY=0.8;entryDx=0;entryDy=0;entryPerimeter=0;exitX=0.633;exitY=0;exitDx=0;exitDy=0;exitPerimeter=0;" edge="1" parent="1" source="IKqCLySUYq28cKyVmnJ_-4" target="IKqCLySUYq28cKyVmnJ_-23">
          <mxGeometry width="50" height="50" relative="1" as="geometry">
            <mxPoint x="470" y="340" as="sourcePoint" />
            <mxPoint x="660" y="540" as="targetPoint" />
          </mxGeometry>
        </mxCell>
        <mxCell id="IKqCLySUYq28cKyVmnJ_-35" value="" style="endArrow=none;html=1;rounded=0;entryX=0.5;entryY=1;entryDx=0;entryDy=0;" edge="1" parent="1" target="IKqCLySUYq28cKyVmnJ_-9">
          <mxGeometry width="50" height="50" relative="1" as="geometry">
            <mxPoint x="430" y="310" as="sourcePoint" />
            <mxPoint x="490" y="540" as="targetPoint" />
          </mxGeometry>
        </mxCell>
        <mxCell id="IKqCLySUYq28cKyVmnJ_-36" value="" style="endArrow=none;html=1;rounded=0;entryX=1;entryY=0.5;entryDx=0;entryDy=0;" edge="1" parent="1" target="IKqCLySUYq28cKyVmnJ_-22">
          <mxGeometry width="50" height="50" relative="1" as="geometry">
            <mxPoint x="430" y="310" as="sourcePoint" />
            <mxPoint x="490" y="540" as="targetPoint" />
          </mxGeometry>
        </mxCell>
        <mxCell id="IKqCLySUYq28cKyVmnJ_-40" value="" style="endArrow=none;html=1;rounded=0;entryX=1;entryY=0;entryDx=0;entryDy=0;exitX=0.5;exitY=0;exitDx=0;exitDy=0;" edge="1" parent="1" source="IKqCLySUYq28cKyVmnJ_-21" target="IKqCLySUYq28cKyVmnJ_-4">
          <mxGeometry width="50" height="50" relative="1" as="geometry">
            <mxPoint x="440" y="590" as="sourcePoint" />
            <mxPoint x="490" y="540" as="targetPoint" />
          </mxGeometry>
        </mxCell>
        <mxCell id="IKqCLySUYq28cKyVmnJ_-45" value="" style="endArrow=none;html=1;rounded=0;entryX=1;entryY=0;entryDx=0;entryDy=0;" edge="1" parent="1" target="IKqCLySUYq28cKyVmnJ_-4">
          <mxGeometry width="50" height="50" relative="1" as="geometry">
            <mxPoint x="730" y="350" as="sourcePoint" />
            <mxPoint x="490" y="540" as="targetPoint" />
          </mxGeometry>
        </mxCell>
        <mxCell id="IKqCLySUYq28cKyVmnJ_-46" value="" style="rounded=0;whiteSpace=wrap;html=1;" vertex="1" parent="1">
          <mxGeometry x="730" y="300" width="240" height="80" as="geometry" />
        </mxCell>
        <mxCell id="IKqCLySUYq28cKyVmnJ_-47" value="" style="endArrow=none;html=1;rounded=0;" edge="1" parent="1" target="IKqCLySUYq28cKyVmnJ_-48">
          <mxGeometry width="50" height="50" relative="1" as="geometry">
            <mxPoint x="850" y="530" as="sourcePoint" />
            <mxPoint x="850" y="390" as="targetPoint" />
          </mxGeometry>
        </mxCell>
        <mxCell id="IKqCLySUYq28cKyVmnJ_-48" value="" style="rhombus;whiteSpace=wrap;html=1;" vertex="1" parent="1">
          <mxGeometry x="730" y="540" width="230" height="190" as="geometry" />
        </mxCell>
        <mxCell id="IKqCLySUYq28cKyVmnJ_-49" value="" style="endArrow=none;html=1;rounded=0;exitX=0.5;exitY=0;exitDx=0;exitDy=0;" edge="1" parent="1" source="IKqCLySUYq28cKyVmnJ_-48">
          <mxGeometry width="50" height="50" relative="1" as="geometry">
            <mxPoint x="440" y="590" as="sourcePoint" />
            <mxPoint x="850" y="390" as="targetPoint" />
          </mxGeometry>
        </mxCell>
        <mxCell id="IKqCLySUYq28cKyVmnJ_-51" value="" style="rhombus;whiteSpace=wrap;html=1;" vertex="1" parent="1">
          <mxGeometry x="480" y="590" width="160" height="170" as="geometry" />
        </mxCell>
        <mxCell id="IKqCLySUYq28cKyVmnJ_-52" value="" style="endArrow=none;html=1;rounded=0;" edge="1" parent="1">
          <mxGeometry width="50" height="50" relative="1" as="geometry">
            <mxPoint x="850" y="390" as="sourcePoint" />
            <mxPoint x="560" y="590" as="targetPoint" />
          </mxGeometry>
        </mxCell>
        <mxCell id="IKqCLySUYq28cKyVmnJ_-55" value="" style="endArrow=none;html=1;rounded=0;entryX=0;entryY=0.5;entryDx=0;entryDy=0;" edge="1" parent="1" target="IKqCLySUYq28cKyVmnJ_-51">
          <mxGeometry width="50" height="50" relative="1" as="geometry">
            <mxPoint x="360" y="710" as="sourcePoint" />
            <mxPoint x="490" y="540" as="targetPoint" />
          </mxGeometry>
        </mxCell>
        <mxCell id="IKqCLySUYq28cKyVmnJ_-59" value="" style="endArrow=none;html=1;rounded=0;entryX=0.036;entryY=0.527;entryDx=0;entryDy=0;entryPerimeter=0;" edge="1" parent="1" target="IKqCLySUYq28cKyVmnJ_-51">
          <mxGeometry width="50" height="50" relative="1" as="geometry">
            <mxPoint x="360" y="720" as="sourcePoint" />
            <mxPoint x="490" y="540" as="targetPoint" />
          </mxGeometry>
        </mxCell>
        <mxCell id="IKqCLySUYq28cKyVmnJ_-61" value="" style="rounded=0;whiteSpace=wrap;html=1;" vertex="1" parent="1">
          <mxGeometry x="240" y="690" width="120" height="60" as="geometry" />
        </mxCell>
        <mxCell id="IKqCLySUYq28cKyVmnJ_-64" value="" style="endArrow=none;html=1;rounded=0;entryX=0;entryY=0.5;entryDx=0;entryDy=0;exitX=1;exitY=0.5;exitDx=0;exitDy=0;" edge="1" parent="1" source="IKqCLySUYq28cKyVmnJ_-71" target="IKqCLySUYq28cKyVmnJ_-61">
          <mxGeometry width="50" height="50" relative="1" as="geometry">
            <mxPoint x="110" y="770" as="sourcePoint" />
            <mxPoint x="520" y="750" as="targetPoint" />
          </mxGeometry>
        </mxCell>
        <mxCell id="IKqCLySUYq28cKyVmnJ_-65" value="" style="endArrow=none;html=1;rounded=0;" edge="1" parent="1">
          <mxGeometry width="50" height="50" relative="1" as="geometry">
            <mxPoint x="240" y="720" as="sourcePoint" />
            <mxPoint x="160" y="840" as="targetPoint" />
          </mxGeometry>
        </mxCell>
        <mxCell id="IKqCLySUYq28cKyVmnJ_-66" value="" style="endArrow=none;html=1;rounded=0;entryX=0;entryY=0.5;entryDx=0;entryDy=0;" edge="1" parent="1" target="IKqCLySUYq28cKyVmnJ_-61">
          <mxGeometry width="50" height="50" relative="1" as="geometry">
            <mxPoint x="100" y="650" as="sourcePoint" />
            <mxPoint x="520" y="750" as="targetPoint" />
          </mxGeometry>
        </mxCell>
        <mxCell id="IKqCLySUYq28cKyVmnJ_-67" value="" style="endArrow=none;html=1;rounded=0;entryX=0;entryY=0.5;entryDx=0;entryDy=0;" edge="1" parent="1" target="IKqCLySUYq28cKyVmnJ_-61">
          <mxGeometry width="50" height="50" relative="1" as="geometry">
            <mxPoint x="100" y="710" as="sourcePoint" />
            <mxPoint x="520" y="750" as="targetPoint" />
          </mxGeometry>
        </mxCell>
        <mxCell id="IKqCLySUYq28cKyVmnJ_-68" value="" style="ellipse;whiteSpace=wrap;html=1;" vertex="1" parent="1">
          <mxGeometry x="-80" y="510" width="260" height="140" as="geometry" />
        </mxCell>
        <mxCell id="IKqCLySUYq28cKyVmnJ_-69" value="" style="ellipse;whiteSpace=wrap;html=1;" vertex="1" parent="1">
          <mxGeometry x="-120" y="670" width="240" height="80" as="geometry" />
        </mxCell>
        <mxCell id="IKqCLySUYq28cKyVmnJ_-70" value="" style="ellipse;whiteSpace=wrap;html=1;" vertex="1" parent="1">
          <mxGeometry x="90" y="830" width="300" height="80" as="geometry" />
        </mxCell>
        <mxCell id="IKqCLySUYq28cKyVmnJ_-71" value="" style="ellipse;whiteSpace=wrap;html=1;" vertex="1" parent="1">
          <mxGeometry x="-150" y="790" width="230" height="80" as="geometry" />
        </mxCell>
        <mxCell id="IKqCLySUYq28cKyVmnJ_-73" value="" style="endArrow=none;html=1;rounded=0;entryX=0.343;entryY=0.973;entryDx=0;entryDy=0;entryPerimeter=0;" edge="1" parent="1" target="IKqCLySUYq28cKyVmnJ_-70">
          <mxGeometry width="50" height="50" relative="1" as="geometry">
            <mxPoint x="90" y="1020" as="sourcePoint" />
            <mxPoint x="390" y="770" as="targetPoint" />
          </mxGeometry>
        </mxCell>
        <mxCell id="IKqCLySUYq28cKyVmnJ_-74" value="" style="endArrow=none;html=1;rounded=0;entryX=0.369;entryY=1.05;entryDx=0;entryDy=0;entryPerimeter=0;exitX=0.5;exitY=0;exitDx=0;exitDy=0;" edge="1" parent="1" source="IKqCLySUYq28cKyVmnJ_-77" target="IKqCLySUYq28cKyVmnJ_-70">
          <mxGeometry width="50" height="50" relative="1" as="geometry">
            <mxPoint x="170" y="1030" as="sourcePoint" />
            <mxPoint x="390" y="770" as="targetPoint" />
          </mxGeometry>
        </mxCell>
        <mxCell id="IKqCLySUYq28cKyVmnJ_-75" value="" style="endArrow=none;html=1;rounded=0;entryX=0.401;entryY=1.05;entryDx=0;entryDy=0;entryPerimeter=0;exitX=0;exitY=0;exitDx=0;exitDy=0;" edge="1" parent="1" source="IKqCLySUYq28cKyVmnJ_-76" target="IKqCLySUYq28cKyVmnJ_-70">
          <mxGeometry width="50" height="50" relative="1" as="geometry">
            <mxPoint x="240" y="1000" as="sourcePoint" />
            <mxPoint x="190" y="920" as="targetPoint" />
          </mxGeometry>
        </mxCell>
        <mxCell id="IKqCLySUYq28cKyVmnJ_-76" value="" style="ellipse;whiteSpace=wrap;html=1;" vertex="1" parent="1">
          <mxGeometry x="340" y="1170" width="310" height="130" as="geometry" />
        </mxCell>
        <mxCell id="IKqCLySUYq28cKyVmnJ_-77" value="" style="ellipse;whiteSpace=wrap;html=1;" vertex="1" parent="1">
          <mxGeometry x="-30" y="1250" width="340" height="140" as="geometry" />
        </mxCell>
        <mxCell id="IKqCLySUYq28cKyVmnJ_-78" value="" style="ellipse;whiteSpace=wrap;html=1;" vertex="1" parent="1">
          <mxGeometry x="-210" y="980" width="310" height="120" as="geometry" />
        </mxCell>
        <mxCell id="IKqCLySUYq28cKyVmnJ_-89" value="" style="endArrow=none;html=1;rounded=0;entryX=1;entryY=0.5;entryDx=0;entryDy=0;" edge="1" parent="1" target="IKqCLySUYq28cKyVmnJ_-46">
          <mxGeometry width="50" height="50" relative="1" as="geometry">
            <mxPoint x="1340" y="340" as="sourcePoint" />
            <mxPoint x="1530" y="760" as="targetPoint" />
          </mxGeometry>
        </mxCell>
        <mxCell id="IKqCLySUYq28cKyVmnJ_-90" value="" style="rhombus;whiteSpace=wrap;html=1;" vertex="1" parent="1">
          <mxGeometry x="1920" y="545" width="230" height="210" as="geometry" />
        </mxCell>
        <mxCell id="IKqCLySUYq28cKyVmnJ_-91" value="" style="endArrow=none;html=1;rounded=0;exitX=0.5;exitY=0;exitDx=0;exitDy=0;" edge="1" source="IKqCLySUYq28cKyVmnJ_-90" parent="1">
          <mxGeometry width="50" height="50" relative="1" as="geometry">
            <mxPoint x="1890" y="815" as="sourcePoint" />
            <mxPoint x="2035" y="375" as="targetPoint" />
          </mxGeometry>
        </mxCell>
        <mxCell id="IKqCLySUYq28cKyVmnJ_-94" value="" style="rounded=0;whiteSpace=wrap;html=1;" vertex="1" parent="1">
          <mxGeometry x="1900" y="270" width="290" height="110" as="geometry" />
        </mxCell>
        <mxCell id="IKqCLySUYq28cKyVmnJ_-95" value="" style="rhombus;whiteSpace=wrap;html=1;" vertex="1" parent="1">
          <mxGeometry x="1350" y="155" width="280" height="370" as="geometry" />
        </mxCell>
        <mxCell id="IKqCLySUYq28cKyVmnJ_-99" value="" style="endArrow=none;html=1;rounded=0;entryX=0;entryY=0.5;entryDx=0;entryDy=0;exitX=1.006;exitY=0.465;exitDx=0;exitDy=0;exitPerimeter=0;" edge="1" parent="1" source="IKqCLySUYq28cKyVmnJ_-95" target="IKqCLySUYq28cKyVmnJ_-94">
          <mxGeometry width="50" height="50" relative="1" as="geometry">
            <mxPoint x="1480" y="810" as="sourcePoint" />
            <mxPoint x="1530" y="760" as="targetPoint" />
          </mxGeometry>
        </mxCell>
        <mxCell id="IKqCLySUYq28cKyVmnJ_-100" value="" style="endArrow=none;html=1;rounded=0;entryX=0.002;entryY=0.638;entryDx=0;entryDy=0;exitX=1;exitY=0.5;exitDx=0;exitDy=0;entryPerimeter=0;" edge="1" parent="1" source="IKqCLySUYq28cKyVmnJ_-95" target="IKqCLySUYq28cKyVmnJ_-94">
          <mxGeometry width="50" height="50" relative="1" as="geometry">
            <mxPoint x="1480" y="810" as="sourcePoint" />
            <mxPoint x="1720" y="520" as="targetPoint" />
          </mxGeometry>
        </mxCell>
        <mxCell id="IKqCLySUYq28cKyVmnJ_-101" value="" style="endArrow=none;html=1;rounded=0;exitX=0.014;exitY=0.543;exitDx=0;exitDy=0;exitPerimeter=0;" edge="1" parent="1" source="IKqCLySUYq28cKyVmnJ_-95">
          <mxGeometry width="50" height="50" relative="1" as="geometry">
            <mxPoint x="1380" y="550" as="sourcePoint" />
            <mxPoint x="970" y="350" as="targetPoint" />
          </mxGeometry>
        </mxCell>
        <mxCell id="IKqCLySUYq28cKyVmnJ_-102" value="" style="endArrow=none;html=1;rounded=0;entryX=0.5;entryY=1;entryDx=0;entryDy=0;" edge="1" parent="1" target="IKqCLySUYq28cKyVmnJ_-48">
          <mxGeometry width="50" height="50" relative="1" as="geometry">
            <mxPoint x="860" y="1285" as="sourcePoint" />
            <mxPoint x="860" y="1095" as="targetPoint" />
          </mxGeometry>
        </mxCell>
        <mxCell id="IKqCLySUYq28cKyVmnJ_-103" value="" style="endArrow=none;html=1;rounded=0;" edge="1" parent="1">
          <mxGeometry width="50" height="50" relative="1" as="geometry">
            <mxPoint x="1270" y="1285" as="sourcePoint" />
            <mxPoint x="860" y="1285" as="targetPoint" />
          </mxGeometry>
        </mxCell>
        <mxCell id="IKqCLySUYq28cKyVmnJ_-104" value="" style="endArrow=none;html=1;rounded=0;" edge="1" parent="1">
          <mxGeometry width="50" height="50" relative="1" as="geometry">
            <mxPoint x="870" y="1275" as="sourcePoint" />
            <mxPoint x="1270" y="1275" as="targetPoint" />
          </mxGeometry>
        </mxCell>
        <mxCell id="IKqCLySUYq28cKyVmnJ_-105" value="" style="endArrow=none;html=1;rounded=0;exitX=1;exitY=0.5;exitDx=0;exitDy=0;" edge="1" source="IKqCLySUYq28cKyVmnJ_-109" parent="1">
          <mxGeometry width="50" height="50" relative="1" as="geometry">
            <mxPoint x="1430" y="1115" as="sourcePoint" />
            <mxPoint x="2040" y="1285" as="targetPoint" />
          </mxGeometry>
        </mxCell>
        <mxCell id="IKqCLySUYq28cKyVmnJ_-106" value="" style="endArrow=none;html=1;rounded=0;" edge="1" parent="1">
          <mxGeometry width="50" height="50" relative="1" as="geometry">
            <mxPoint x="1540" y="1285" as="sourcePoint" />
            <mxPoint x="2050" y="1295" as="targetPoint" />
          </mxGeometry>
        </mxCell>
        <mxCell id="IKqCLySUYq28cKyVmnJ_-107" value="" style="endArrow=none;html=1;rounded=0;entryX=0.563;entryY=0.983;entryDx=0;entryDy=0;entryPerimeter=0;" edge="1" parent="1" target="IKqCLySUYq28cKyVmnJ_-90">
          <mxGeometry width="50" height="50" relative="1" as="geometry">
            <mxPoint x="2050" y="1290" as="sourcePoint" />
            <mxPoint x="2050" y="1010" as="targetPoint" />
          </mxGeometry>
        </mxCell>
        <mxCell id="IKqCLySUYq28cKyVmnJ_-108" value="" style="endArrow=none;html=1;rounded=0;" edge="1" parent="1">
          <mxGeometry width="50" height="50" relative="1" as="geometry">
            <mxPoint x="2040" y="750" as="sourcePoint" />
            <mxPoint x="2040" y="1280" as="targetPoint" />
          </mxGeometry>
        </mxCell>
        <mxCell id="IKqCLySUYq28cKyVmnJ_-109" value="" style="rounded=0;whiteSpace=wrap;html=1;" vertex="1" parent="1">
          <mxGeometry x="1270" y="1205" width="280" height="140" as="geometry" />
        </mxCell>
        <mxCell id="IKqCLySUYq28cKyVmnJ_-110" value="" style="endArrow=none;html=1;rounded=0;entryX=0.5;entryY=1;entryDx=0;entryDy=0;" edge="1" parent="1">
          <mxGeometry width="50" height="50" relative="1" as="geometry">
            <mxPoint x="870" y="1275" as="sourcePoint" />
            <mxPoint x="860" y="720" as="targetPoint" />
          </mxGeometry>
        </mxCell>
        <mxCell id="IKqCLySUYq28cKyVmnJ_-111" value="" style="endArrow=none;html=1;rounded=0;entryX=0;entryY=0.5;entryDx=0;entryDy=0;" edge="1" parent="1" source="IKqCLySUYq28cKyVmnJ_-112" target="IKqCLySUYq28cKyVmnJ_-90">
          <mxGeometry width="50" height="50" relative="1" as="geometry">
            <mxPoint x="1700" y="650" as="sourcePoint" />
            <mxPoint x="1530" y="760" as="targetPoint" />
          </mxGeometry>
        </mxCell>
        <mxCell id="IKqCLySUYq28cKyVmnJ_-113" value="" style="endArrow=none;html=1;rounded=0;entryX=0;entryY=0.5;entryDx=0;entryDy=0;" edge="1" parent="1" target="IKqCLySUYq28cKyVmnJ_-112">
          <mxGeometry width="50" height="50" relative="1" as="geometry">
            <mxPoint x="1700" y="650" as="sourcePoint" />
            <mxPoint x="1920" y="650" as="targetPoint" />
          </mxGeometry>
        </mxCell>
        <mxCell id="IKqCLySUYq28cKyVmnJ_-112" value="" style="rounded=0;whiteSpace=wrap;html=1;" vertex="1" parent="1">
          <mxGeometry x="1430" y="600" width="270" height="100" as="geometry" />
        </mxCell>
        <mxCell id="IKqCLySUYq28cKyVmnJ_-114" value="" style="endArrow=none;html=1;rounded=0;" edge="1" parent="1">
          <mxGeometry width="50" height="50" relative="1" as="geometry">
            <mxPoint x="1320" y="770" as="sourcePoint" />
            <mxPoint x="1560" y="710" as="targetPoint" />
          </mxGeometry>
        </mxCell>
        <mxCell id="IKqCLySUYq28cKyVmnJ_-115" value="" style="endArrow=none;html=1;rounded=0;" edge="1" parent="1">
          <mxGeometry width="50" height="50" relative="1" as="geometry">
            <mxPoint x="1300" y="990" as="sourcePoint" />
            <mxPoint x="1560" y="710" as="targetPoint" />
          </mxGeometry>
        </mxCell>
        <mxCell id="IKqCLySUYq28cKyVmnJ_-116" value="" style="endArrow=none;html=1;rounded=0;" edge="1" parent="1">
          <mxGeometry width="50" height="50" relative="1" as="geometry">
            <mxPoint x="1540" y="850" as="sourcePoint" />
            <mxPoint x="1560" y="720" as="targetPoint" />
          </mxGeometry>
        </mxCell>
        <mxCell id="IKqCLySUYq28cKyVmnJ_-117" value="" style="endArrow=none;html=1;rounded=0;" edge="1" parent="1" target="IKqCLySUYq28cKyVmnJ_-121">
          <mxGeometry width="50" height="50" relative="1" as="geometry">
            <mxPoint x="1860" y="910" as="sourcePoint" />
            <mxPoint x="1570" y="720" as="targetPoint" />
          </mxGeometry>
        </mxCell>
        <mxCell id="IKqCLySUYq28cKyVmnJ_-118" value="" style="ellipse;whiteSpace=wrap;html=1;" vertex="1" parent="1">
          <mxGeometry x="1010" y="660" width="310" height="170" as="geometry" />
        </mxCell>
        <mxCell id="IKqCLySUYq28cKyVmnJ_-119" value="" style="ellipse;whiteSpace=wrap;html=1;" vertex="1" parent="1">
          <mxGeometry x="1480" y="840" width="270" height="170" as="geometry" />
        </mxCell>
        <mxCell id="IKqCLySUYq28cKyVmnJ_-120" value="" style="ellipse;whiteSpace=wrap;html=1;" vertex="1" parent="1">
          <mxGeometry x="1150" y="980" width="330" height="150" as="geometry" />
        </mxCell>
        <mxCell id="IKqCLySUYq28cKyVmnJ_-121" value="" style="ellipse;whiteSpace=wrap;html=1;" vertex="1" parent="1">
          <mxGeometry x="1770" y="910" width="250" height="130" as="geometry" />
        </mxCell>
        <mxCell id="IKqCLySUYq28cKyVmnJ_-122" value="" style="endArrow=none;html=1;rounded=0;" edge="1" parent="1">
          <mxGeometry width="50" height="50" relative="1" as="geometry">
            <mxPoint x="1570" y="710" as="sourcePoint" />
            <mxPoint x="1870" y="910" as="targetPoint" />
          </mxGeometry>
        </mxCell>
        <mxCell id="IKqCLySUYq28cKyVmnJ_-123" value="" style="endArrow=none;html=1;rounded=0;entryX=1;entryY=0.5;entryDx=0;entryDy=0;" edge="1" parent="1" target="IKqCLySUYq28cKyVmnJ_-94">
          <mxGeometry width="50" height="50" relative="1" as="geometry">
            <mxPoint x="2640" y="150" as="sourcePoint" />
            <mxPoint x="2550" y="670" as="targetPoint" />
          </mxGeometry>
        </mxCell>
        <mxCell id="IKqCLySUYq28cKyVmnJ_-124" value="" style="endArrow=none;html=1;rounded=0;" edge="1" parent="1">
          <mxGeometry width="50" height="50" relative="1" as="geometry">
            <mxPoint x="2580" y="630" as="sourcePoint" />
            <mxPoint x="2190" y="320" as="targetPoint" />
          </mxGeometry>
        </mxCell>
        <mxCell id="IKqCLySUYq28cKyVmnJ_-125" value="" style="endArrow=none;html=1;rounded=0;" edge="1" parent="1">
          <mxGeometry width="50" height="50" relative="1" as="geometry">
            <mxPoint x="2630" y="500" as="sourcePoint" />
            <mxPoint x="2200" y="330" as="targetPoint" />
          </mxGeometry>
        </mxCell>
        <mxCell id="IKqCLySUYq28cKyVmnJ_-126" value="" style="endArrow=none;html=1;rounded=0;" edge="1" parent="1">
          <mxGeometry width="50" height="50" relative="1" as="geometry">
            <mxPoint x="2680" y="390" as="sourcePoint" />
            <mxPoint x="2210" y="330" as="targetPoint" />
          </mxGeometry>
        </mxCell>
        <mxCell id="IKqCLySUYq28cKyVmnJ_-127" value="" style="endArrow=none;html=1;rounded=0;" edge="1" parent="1">
          <mxGeometry width="50" height="50" relative="1" as="geometry">
            <mxPoint x="2680" y="230" as="sourcePoint" />
            <mxPoint x="2210" y="330" as="targetPoint" />
          </mxGeometry>
        </mxCell>
        <mxCell id="IKqCLySUYq28cKyVmnJ_-128" value="" style="endArrow=none;html=1;rounded=0;" edge="1" parent="1">
          <mxGeometry width="50" height="50" relative="1" as="geometry">
            <mxPoint x="2470" y="780" as="sourcePoint" />
            <mxPoint x="2200" y="320" as="targetPoint" />
          </mxGeometry>
        </mxCell>
        <mxCell id="IKqCLySUYq28cKyVmnJ_-129" value="" style="ellipse;whiteSpace=wrap;html=1;" vertex="1" parent="1">
          <mxGeometry x="2300" y="760" width="350" height="150" as="geometry" />
        </mxCell>
        <mxCell id="IKqCLySUYq28cKyVmnJ_-130" value="" style="ellipse;whiteSpace=wrap;html=1;" vertex="1" parent="1">
          <mxGeometry x="2520" y="-5" width="350" height="150" as="geometry" />
        </mxCell>
        <mxCell id="IKqCLySUYq28cKyVmnJ_-131" value="" style="ellipse;whiteSpace=wrap;html=1;" vertex="1" parent="1">
          <mxGeometry x="2680" y="145" width="350" height="150" as="geometry" />
        </mxCell>
        <mxCell id="IKqCLySUYq28cKyVmnJ_-132" value="" style="ellipse;whiteSpace=wrap;html=1;" vertex="1" parent="1">
          <mxGeometry x="2660" y="290" width="350" height="150" as="geometry" />
        </mxCell>
        <mxCell id="IKqCLySUYq28cKyVmnJ_-133" value="" style="ellipse;whiteSpace=wrap;html=1;" vertex="1" parent="1">
          <mxGeometry x="2580" y="470" width="350" height="150" as="geometry" />
        </mxCell>
        <mxCell id="IKqCLySUYq28cKyVmnJ_-134" value="" style="ellipse;whiteSpace=wrap;html=1;" vertex="1" parent="1">
          <mxGeometry x="2490" y="620" width="350" height="150" as="geometry" />
        </mxCell>
        <mxCell id="IKqCLySUYq28cKyVmnJ_-135" value="" style="endArrow=none;html=1;rounded=0;entryX=0.362;entryY=0.012;entryDx=0;entryDy=0;entryPerimeter=0;" edge="1" parent="1" target="IKqCLySUYq28cKyVmnJ_-130">
          <mxGeometry width="50" height="50" relative="1" as="geometry">
            <mxPoint x="2520" y="-150" as="sourcePoint" />
            <mxPoint x="2550" y="670" as="targetPoint" />
          </mxGeometry>
        </mxCell>
        <mxCell id="IKqCLySUYq28cKyVmnJ_-137" value="" style="endArrow=none;html=1;rounded=0;entryX=0.354;entryY=0.012;entryDx=0;entryDy=0;entryPerimeter=0;" edge="1" parent="1">
          <mxGeometry width="50" height="50" relative="1" as="geometry">
            <mxPoint x="2860" y="-360" as="sourcePoint" />
            <mxPoint x="2646.9500000000007" y="-4.999999999999818" as="targetPoint" />
          </mxGeometry>
        </mxCell>
        <mxCell id="IKqCLySUYq28cKyVmnJ_-138" value="" style="endArrow=none;html=1;rounded=0;entryX=0.379;entryY=-0.007;entryDx=0;entryDy=0;entryPerimeter=0;" edge="1" parent="1" target="IKqCLySUYq28cKyVmnJ_-130">
          <mxGeometry width="50" height="50" relative="1" as="geometry">
            <mxPoint x="2880" y="-120" as="sourcePoint" />
            <mxPoint x="2550" y="670" as="targetPoint" />
          </mxGeometry>
        </mxCell>
        <mxCell id="IKqCLySUYq28cKyVmnJ_-140" value="" style="ellipse;whiteSpace=wrap;html=1;" vertex="1" parent="1">
          <mxGeometry x="2350" y="-290" width="320" height="150" as="geometry" />
        </mxCell>
        <mxCell id="IKqCLySUYq28cKyVmnJ_-142" value="" style="ellipse;whiteSpace=wrap;html=1;" vertex="1" parent="1">
          <mxGeometry x="2690" y="-540" width="420" height="180" as="geometry" />
        </mxCell>
        <mxCell id="IKqCLySUYq28cKyVmnJ_-143" value="" style="ellipse;whiteSpace=wrap;html=1;" vertex="1" parent="1">
          <mxGeometry x="2870" y="-260" width="360" height="160" as="geometry" />
        </mxCell>
        <mxCell id="IKqCLySUYq28cKyVmnJ_-144" value="" style="endArrow=none;html=1;rounded=0;entryX=1;entryY=0.5;entryDx=0;entryDy=0;" edge="1" parent="1" target="IKqCLySUYq28cKyVmnJ_-130">
          <mxGeometry width="50" height="50" relative="1" as="geometry">
            <mxPoint x="3140" y="50" as="sourcePoint" />
            <mxPoint x="2550" as="targetPoint" />
          </mxGeometry>
        </mxCell>
        <mxCell id="IKqCLySUYq28cKyVmnJ_-145" value="" style="ellipse;whiteSpace=wrap;html=1;" vertex="1" parent="1">
          <mxGeometry x="3140" y="-50" width="340" height="190" as="geometry" />
        </mxCell>
        <mxCell id="IKqCLySUYq28cKyVmnJ_-147" value="" style="endArrow=none;html=1;rounded=0;" edge="1" parent="1">
          <mxGeometry width="50" height="50" relative="1" as="geometry">
            <mxPoint x="1860" y="1400" as="sourcePoint" />
            <mxPoint x="1530" y="1350" as="targetPoint" />
          </mxGeometry>
        </mxCell>
        <mxCell id="IKqCLySUYq28cKyVmnJ_-148" value="" style="endArrow=none;html=1;rounded=0;" edge="1" parent="1">
          <mxGeometry width="50" height="50" relative="1" as="geometry">
            <mxPoint x="1970" y="1600" as="sourcePoint" />
            <mxPoint x="1540" y="1360" as="targetPoint" />
          </mxGeometry>
        </mxCell>
        <mxCell id="IKqCLySUYq28cKyVmnJ_-149" value="" style="endArrow=none;html=1;rounded=0;" edge="1" parent="1">
          <mxGeometry width="50" height="50" relative="1" as="geometry">
            <mxPoint x="1610" y="1660" as="sourcePoint" />
            <mxPoint x="1520" y="1360" as="targetPoint" />
          </mxGeometry>
        </mxCell>
        <mxCell id="IKqCLySUYq28cKyVmnJ_-150" value="" style="ellipse;whiteSpace=wrap;html=1;" vertex="1" parent="1">
          <mxGeometry x="1860" y="1350" width="340" height="150" as="geometry" />
        </mxCell>
        <mxCell id="IKqCLySUYq28cKyVmnJ_-151" value="" style="ellipse;whiteSpace=wrap;html=1;" vertex="1" parent="1">
          <mxGeometry x="1580" y="1630" width="340" height="150" as="geometry" />
        </mxCell>
        <mxCell id="IKqCLySUYq28cKyVmnJ_-152" value="" style="ellipse;whiteSpace=wrap;html=1;" vertex="1" parent="1">
          <mxGeometry x="1920" y="1530" width="340" height="150" as="geometry" />
        </mxCell>
        <mxCell id="IKqCLySUYq28cKyVmnJ_-153" value="" style="endArrow=none;html=1;rounded=0;entryX=0.25;entryY=1;entryDx=0;entryDy=0;" edge="1" parent="1" target="IKqCLySUYq28cKyVmnJ_-109">
          <mxGeometry width="50" height="50" relative="1" as="geometry">
            <mxPoint x="1340" y="1540" as="sourcePoint" />
            <mxPoint x="1660" y="1610" as="targetPoint" />
          </mxGeometry>
        </mxCell>
        <mxCell id="IKqCLySUYq28cKyVmnJ_-154" value="" style="endArrow=none;html=1;rounded=0;" edge="1" parent="1">
          <mxGeometry width="50" height="50" relative="1" as="geometry">
            <mxPoint x="1350" y="1550" as="sourcePoint" />
            <mxPoint x="1350" y="1340" as="targetPoint" />
          </mxGeometry>
        </mxCell>
        <mxCell id="IKqCLySUYq28cKyVmnJ_-156" value="" style="rhombus;whiteSpace=wrap;html=1;" vertex="1" parent="1">
          <mxGeometry x="1210" y="1540" width="270" height="270" as="geometry" />
        </mxCell>
        <mxCell id="IKqCLySUYq28cKyVmnJ_-157" value="" style="endArrow=none;html=1;rounded=0;entryX=0.5;entryY=1;entryDx=0;entryDy=0;" edge="1" parent="1" target="IKqCLySUYq28cKyVmnJ_-156">
          <mxGeometry width="50" height="50" relative="1" as="geometry">
            <mxPoint x="1345" y="2050" as="sourcePoint" />
            <mxPoint x="1660" y="1610" as="targetPoint" />
          </mxGeometry>
        </mxCell>
        <mxCell id="IKqCLySUYq28cKyVmnJ_-158" value="" style="rounded=0;whiteSpace=wrap;html=1;" vertex="1" parent="1">
          <mxGeometry x="1170" y="2050" width="440" height="130" as="geometry" />
        </mxCell>
        <mxCell id="IKqCLySUYq28cKyVmnJ_-159" value="" style="endArrow=none;html=1;rounded=0;entryX=0.5;entryY=1;entryDx=0;entryDy=0;" edge="1" parent="1" target="IKqCLySUYq28cKyVmnJ_-158">
          <mxGeometry width="50" height="50" relative="1" as="geometry">
            <mxPoint x="1390" y="2340" as="sourcePoint" />
            <mxPoint x="1660" y="1610" as="targetPoint" />
          </mxGeometry>
        </mxCell>
        <mxCell id="IKqCLySUYq28cKyVmnJ_-160" value="" style="rhombus;whiteSpace=wrap;html=1;" vertex="1" parent="1">
          <mxGeometry x="1200" y="2340" width="390" height="410" as="geometry" />
        </mxCell>
        <mxCell id="IKqCLySUYq28cKyVmnJ_-161" value="" style="endArrow=none;html=1;rounded=0;entryX=0.5;entryY=1;entryDx=0;entryDy=0;" edge="1" parent="1" target="IKqCLySUYq28cKyVmnJ_-160">
          <mxGeometry width="50" height="50" relative="1" as="geometry">
            <mxPoint x="1390" y="2980" as="sourcePoint" />
            <mxPoint x="1660" y="2110" as="targetPoint" />
          </mxGeometry>
        </mxCell>
        <mxCell id="IKqCLySUYq28cKyVmnJ_-162" value="" style="endArrow=none;html=1;rounded=0;entryX=0.552;entryY=0.968;entryDx=0;entryDy=0;entryPerimeter=0;" edge="1" parent="1" target="IKqCLySUYq28cKyVmnJ_-160">
          <mxGeometry width="50" height="50" relative="1" as="geometry">
            <mxPoint x="1410" y="2970" as="sourcePoint" />
            <mxPoint x="1660" y="2110" as="targetPoint" />
          </mxGeometry>
        </mxCell>
        <mxCell id="IKqCLySUYq28cKyVmnJ_-164" value="" style="rounded=0;whiteSpace=wrap;html=1;" vertex="1" parent="1">
          <mxGeometry x="1220" y="2980" width="430" height="130" as="geometry" />
        </mxCell>
        <mxCell id="IKqCLySUYq28cKyVmnJ_-166" value="" style="endArrow=none;html=1;rounded=0;entryX=0.5;entryY=1;entryDx=0;entryDy=0;" edge="1" parent="1" target="IKqCLySUYq28cKyVmnJ_-164">
          <mxGeometry width="50" height="50" relative="1" as="geometry">
            <mxPoint x="920" y="3590" as="sourcePoint" />
            <mxPoint x="1520" y="3090" as="targetPoint" />
          </mxGeometry>
        </mxCell>
        <mxCell id="IKqCLySUYq28cKyVmnJ_-167" value="" style="endArrow=none;html=1;rounded=0;exitX=0.93;exitY=0.26;exitDx=0;exitDy=0;exitPerimeter=0;" edge="1" parent="1" source="IKqCLySUYq28cKyVmnJ_-171">
          <mxGeometry width="50" height="50" relative="1" as="geometry">
            <mxPoint x="980" y="3290" as="sourcePoint" />
            <mxPoint x="1440" y="3110" as="targetPoint" />
          </mxGeometry>
        </mxCell>
        <mxCell id="IKqCLySUYq28cKyVmnJ_-168" value="" style="endArrow=none;html=1;rounded=0;" edge="1" parent="1">
          <mxGeometry width="50" height="50" relative="1" as="geometry">
            <mxPoint x="1760" y="3400" as="sourcePoint" />
            <mxPoint x="1440" y="3110" as="targetPoint" />
          </mxGeometry>
        </mxCell>
        <mxCell id="IKqCLySUYq28cKyVmnJ_-169" value="" style="endArrow=none;html=1;rounded=0;entryX=0.5;entryY=1;entryDx=0;entryDy=0;exitX=0.31;exitY=0.034;exitDx=0;exitDy=0;exitPerimeter=0;" edge="1" parent="1" source="IKqCLySUYq28cKyVmnJ_-172" target="IKqCLySUYq28cKyVmnJ_-164">
          <mxGeometry width="50" height="50" relative="1" as="geometry">
            <mxPoint x="1620" y="3610" as="sourcePoint" />
            <mxPoint x="1465" y="3140" as="targetPoint" />
          </mxGeometry>
        </mxCell>
        <mxCell id="IKqCLySUYq28cKyVmnJ_-170" value="" style="endArrow=none;html=1;rounded=0;" edge="1" parent="1">
          <mxGeometry width="50" height="50" relative="1" as="geometry">
            <mxPoint x="1220" y="3640" as="sourcePoint" />
            <mxPoint x="1440" y="3120" as="targetPoint" />
          </mxGeometry>
        </mxCell>
        <mxCell id="IKqCLySUYq28cKyVmnJ_-171" value="" style="ellipse;whiteSpace=wrap;html=1;" vertex="1" parent="1">
          <mxGeometry x="550" y="3250" width="430" height="190" as="geometry" />
        </mxCell>
        <mxCell id="IKqCLySUYq28cKyVmnJ_-172" value="" style="ellipse;whiteSpace=wrap;html=1;" vertex="1" parent="1">
          <mxGeometry x="1500" y="3620" width="400" height="160" as="geometry" />
        </mxCell>
        <mxCell id="IKqCLySUYq28cKyVmnJ_-173" value="" style="ellipse;whiteSpace=wrap;html=1;" vertex="1" parent="1">
          <mxGeometry x="1670" y="3360" width="370" height="180" as="geometry" />
        </mxCell>
        <mxCell id="IKqCLySUYq28cKyVmnJ_-174" value="" style="ellipse;whiteSpace=wrap;html=1;" vertex="1" parent="1">
          <mxGeometry x="1070" y="3640" width="350" height="140" as="geometry" />
        </mxCell>
        <mxCell id="IKqCLySUYq28cKyVmnJ_-175" value="" style="ellipse;whiteSpace=wrap;html=1;" vertex="1" parent="1">
          <mxGeometry x="670" y="3580" width="340" height="120" as="geometry" />
        </mxCell>
      </root>
    </mxGraphModel>
  </diagram>
</mxfile>
